{
    "asset" : {
        "generator" : "Khronos glTF Blender I/O v3.4.50",
        "version" : "2.0"
    },
    "scene" : 0,
    "scenes" : [
        {
            "name" : "Scene",
            "nodes" : [
                0,
                1,
                2,
                3,
                4,
                5,
                6,
                7,
                8
            ]
        }
    ],
    "nodes" : [
        {
            "mesh" : 0,
            "name" : "Text.003",
            "rotation" : [
                0.5000008940696716,
                0.49999910593032837,
                -0.5000008940696716,
                0.49999910593032837
            ],
            "translation" : [
                25.30748748779297,
                -0.29938358068466187,
                0
            ]
        },
        {
            "mesh" : 1,
            "name" : "Text.004",
            "rotation" : [
                0.5000008940696716,
                0.49999910593032837,
                -0.5000008940696716,
                0.49999910593032837
            ],
            "scale" : [
                1.2701656818389893,
                1,
                1.2701656818389893
            ],
            "translation" : [
                25.289215087890625,
                -5.360110299079679e-05,
                2.422648776700953e-06
            ]
        },
        {
            "mesh" : 2,
            "name" : "Text.001",
            "rotation" : [
                0.5000008940696716,
                -0.49999910593032837,
                0.5000008940696716,
                0.49999910593032837
            ],
            "translation" : [
                -25.30748748779297,
                -0.29938358068466187,
                0
            ]
        },
        {
            "mesh" : 3,
            "name" : "Text.002",
            "rotation" : [
                0.5000008940696716,
                -0.49999910593032837,
                0.5000008940696716,
                0.49999910593032837
            ],
            "scale" : [
                1.2701656818389893,
                1,
                1.2701656818389893
            ],
            "translation" : [
                -25.289215087890625,
                -5.360110299079679e-05,
                0
            ]
        },
        {
            "mesh" : 4,
            "name" : "Text.006",
            "rotation" : [
                0.5000008940696716,
                -0.49999910593032837,
                0.5000008940696716,
                0.49999910593032837
            ],
            "scale" : [
                1.2701656818389893,
                1,
                1.2701656818389893
            ],
            "translation" : [
                -25.289215087890625,
                -5.360110299079679e-05,
                0
            ]
        },
        {
            "mesh" : 5,
            "name" : "Cube.002",
            "rotation" : [
                0,
                -0.7071068286895752,
                0,
                0.7071068286895752
            ],
            "scale" : [
                16.54683494567871,
                0.2977515459060669,
                0.2977515459060669
            ],
            "translation" : [
                -0.30316925048828125,
                -0.815093994140625,
                0
            ]
        },
        {
            "mesh" : 6,
            "name" : "Cube.001",
            "rotation" : [
                0,
                0.70710688829422,
                0,
                0.7071066498756409
            ],
            "scale" : [
                16.54683494567871,
                0.2977515459060669,
                0.2977515459060669
            ],
            "translation" : [
                0.30316925048828125,
                -0.815093994140625,
                0
            ]
        },
        {
            "mesh" : 7,
            "name" : "Text.007",
            "rotation" : [
                0.5000008344650269,
                0.4999992251396179,
                -0.5000009536743164,
                0.4999990463256836
            ],
            "scale" : [
                1.2701656818389893,
                1,
                1.2701656818389893
            ],
            "translation" : [
                25.289215087890625,
                -5.340576171875e-05,
                2.461111762386281e-06
            ]
        },
        {
            "mesh" : 8,
            "name" : "Cube.253",
            "scale" : [
                1.9316335916519165,
                7.017849922180176,
                1.9316335916519165
            ],
            "translation" : [
                0,
                9.586647987365723,
                0
            ]
        }
    ],
    "materials" : [
        {
            "doubleSided" : true,
            "name" : "Text",
            "pbrMetallicRoughness" : {
                "baseColorFactor" : [
                    0.800000011920929,
                    0.800000011920929,
                    0.800000011920929,
                    1
                ],
                "metallicFactor" : 0,
                "roughnessFactor" : 0.5
            }
        },
        {
            "doubleSided" : true,
            "name" : "Material.005",
            "pbrMetallicRoughness" : {
                "baseColorTexture" : {
                    "index" : 0
                },
                "metallicFactor" : 0,
                "roughnessFactor" : 0.5
            }
        },
        {
            "alphaMode" : "BLEND",
            "doubleSided" : true,
            "name" : "AAA",
            "pbrMetallicRoughness" : {
                "baseColorTexture" : {
                    "index" : 1
                },
                "metallicFactor" : 0,
                "roughnessFactor" : 0.5
            }
        }
    ],
    "meshes" : [
        {
            "name" : "Text.027",
            "primitives" : [
                {
                    "attributes" : {
                        "POSITION" : 0,
                        "TEXCOORD_0" : 1,
                        "NORMAL" : 2
                    },
                    "indices" : 3,
                    "material" : 0
                }
            ]
        },
        {
            "name" : "Text.028",
            "primitives" : [
                {
                    "attributes" : {
                        "POSITION" : 4,
                        "TEXCOORD_0" : 5,
                        "NORMAL" : 6
                    },
                    "indices" : 7,
                    "material" : 0
                }
            ]
        },
        {
            "name" : "Text.002",
            "primitives" : [
                {
                    "attributes" : {
                        "POSITION" : 8,
                        "TEXCOORD_0" : 9,
                        "NORMAL" : 10
                    },
                    "indices" : 3,
                    "material" : 0
                }
            ]
        },
        {
            "name" : "Text.003",
            "primitives" : [
                {
                    "attributes" : {
                        "POSITION" : 11,
                        "TEXCOORD_0" : 12,
                        "NORMAL" : 13
                    },
                    "indices" : 7,
                    "material" : 0
                }
            ]
        },
        {
            "name" : "Text.004",
            "primitives" : [
                {
                    "attributes" : {
                        "POSITION" : 14,
                        "TEXCOORD_0" : 15,
                        "NORMAL" : 16
                    },
                    "indices" : 17,
                    "material" : 0
                }
            ]
        },
        {
            "name" : "Cube.001",
            "primitives" : [
                {
                    "attributes" : {
                        "POSITION" : 18,
                        "TEXCOORD_0" : 19,
                        "NORMAL" : 20
                    },
                    "indices" : 21,
                    "material" : 1
                }
            ]
        },
        {
            "name" : "Cube.002",
            "primitives" : [
                {
                    "attributes" : {
                        "POSITION" : 22,
                        "TEXCOORD_0" : 23,
                        "NORMAL" : 24
                    },
                    "indices" : 21,
                    "material" : 1
                }
            ]
        },
        {
            "name" : "Text.012",
            "primitives" : [
                {
                    "attributes" : {
                        "POSITION" : 25,
                        "TEXCOORD_0" : 26,
                        "NORMAL" : 27
                    },
                    "indices" : 17,
                    "material" : 0
                }
            ]
        },
        {
            "name" : "Cube.14346",
            "primitives" : [
                {
                    "attributes" : {
                        "POSITION" : 28,
                        "TEXCOORD_0" : 29,
                        "NORMAL" : 30
                    },
                    "indices" : 31,
                    "material" : 2
                }
            ]
        }
    ],
    "textures" : [
        {
            "sampler" : 0,
            "source" : 0
        },
        {
            "sampler" : 0,
            "source" : 1
        }
    ],
    "images" : [
        {
            "bufferView" : 22,
            "mimeType" : "image/png",
            "name" : "3381SW_READ"
        },
        {
            "bufferView" : 33,
            "mimeType" : "image/png",
            "name" : "3281SW_PM"
        }
    ],
    "accessors" : [
        {
            "bufferView" : 0,
            "componentType" : 5126,
            "count" : 13072,
            "max" : [
                12.343002319335938,
                0.09999999403953552,
                -1.9400897026062012
            ],
            "min" : [
                -12.330998420715332,
                -0.09999999403953552,
                -3.7880897521972656
            ],
            "type" : "VEC3"
        },
        {
            "bufferView" : 1,
            "componentType" : 5126,
            "count" : 13072,
            "type" : "VEC2"
        },
        {
            "bufferView" : 2,
            "componentType" : 5126,
            "count" : 13072,
            "type" : "VEC3"
        },
        {
            "bufferView" : 3,
            "componentType" : 5123,
            "count" : 23532,
            "type" : "SCALAR"
        },
        {
            "bufferView" : 4,
            "componentType" : 5126,
            "count" : 3578,
            "max" : [
                18.045833587646484,
                0.10000000149011612,
                -0.5983913540840149
            ],
            "min" : [
                13.524434089660645,
                -0.10000000149011612,
                -1.5083913803100586
            ],
            "type" : "VEC3"
        },
        {
            "bufferView" : 5,
            "componentType" : 5126,
            "count" : 3578,
            "type" : "VEC2"
        },
        {
            "bufferView" : 6,
            "componentType" : 5126,
            "count" : 3578,
            "type" : "VEC3"
        },
        {
            "bufferView" : 7,
            "componentType" : 5123,
            "count" : 6396,
            "type" : "SCALAR"
        },
        {
            "bufferView" : 8,
            "componentType" : 5126,
            "count" : 13072,
            "max" : [
                12.343002319335938,
                0.09999999403953552,
                -1.9400897026062012
            ],
            "min" : [
                -12.330998420715332,
                -0.09999999403953552,
                -3.7880897521972656
            ],
            "type" : "VEC3"
        },
        {
            "bufferView" : 9,
            "componentType" : 5126,
            "count" : 13072,
            "type" : "VEC2"
        },
        {
            "bufferView" : 10,
            "componentType" : 5126,
            "count" : 13072,
            "type" : "VEC3"
        },
        {
            "bufferView" : 11,
            "componentType" : 5126,
            "count" : 3578,
            "max" : [
                18.045833587646484,
                0.10000000149011612,
                -0.5983913540840149
            ],
            "min" : [
                13.524434089660645,
                -0.10000000149011612,
                -1.5083913803100586
            ],
            "type" : "VEC3"
        },
        {
            "bufferView" : 12,
            "componentType" : 5126,
            "count" : 3578,
            "type" : "VEC2"
        },
        {
            "bufferView" : 13,
            "componentType" : 5126,
            "count" : 3578,
            "type" : "VEC3"
        },
        {
            "bufferView" : 14,
            "componentType" : 5126,
            "count" : 2653,
            "max" : [
                -13.274835586547852,
                0.10000000149011612,
                -0.5983913540840149
            ],
            "min" : [
                -18.054935455322266,
                -0.10000000149011612,
                -1.5083913803100586
            ],
            "type" : "VEC3"
        },
        {
            "bufferView" : 15,
            "componentType" : 5126,
            "count" : 2653,
            "type" : "VEC2"
        },
        {
            "bufferView" : 16,
            "componentType" : 5126,
            "count" : 2653,
            "type" : "VEC3"
        },
        {
            "bufferView" : 17,
            "componentType" : 5123,
            "count" : 4848,
            "type" : "SCALAR"
        },
        {
            "bufferView" : 18,
            "componentType" : 5126,
            "count" : 24,
            "max" : [
                1,
                7.717007637023926,
                84.9339599609375
            ],
            "min" : [
                -1,
                5.717007637023926,
                82.9339599609375
            ],
            "type" : "VEC3"
        },
        {
            "bufferView" : 19,
            "componentType" : 5126,
            "count" : 24,
            "type" : "VEC2"
        },
        {
            "bufferView" : 20,
            "componentType" : 5126,
            "count" : 24,
            "type" : "VEC3"
        },
        {
            "bufferView" : 21,
            "componentType" : 5123,
            "count" : 36,
            "type" : "SCALAR"
        },
        {
            "bufferView" : 23,
            "componentType" : 5126,
            "count" : 24,
            "max" : [
                1,
                7.717007637023926,
                84.9339599609375
            ],
            "min" : [
                -1,
                5.717007637023926,
                82.9339599609375
            ],
            "type" : "VEC3"
        },
        {
            "bufferView" : 24,
            "componentType" : 5126,
            "count" : 24,
            "type" : "VEC2"
        },
        {
            "bufferView" : 25,
            "componentType" : 5126,
            "count" : 24,
            "type" : "VEC3"
        },
        {
            "bufferView" : 26,
            "componentType" : 5126,
            "count" : 2653,
            "max" : [
                -13.274835586547852,
                0.10000000149011612,
                -0.5983913540840149
            ],
            "min" : [
                -18.054935455322266,
                -0.10000000149011612,
                -1.5083913803100586
            ],
            "type" : "VEC3"
        },
        {
            "bufferView" : 27,
            "componentType" : 5126,
            "count" : 2653,
            "type" : "VEC2"
        },
        {
            "bufferView" : 28,
            "componentType" : 5126,
            "count" : 2653,
            "type" : "VEC3"
        },
        {
            "bufferView" : 29,
            "componentType" : 5126,
            "count" : 16224,
            "max" : [
                13,
                10.264272689819336,
                12.999998092651367
            ],
            "min" : [
                -12.999998092651367,
                -1.9130313396453857,
                -13
            ],
            "type" : "VEC3"
        },
        {
            "bufferView" : 30,
            "componentType" : 5126,
            "count" : 16224,
            "type" : "VEC2"
        },
        {
            "bufferView" : 31,
            "componentType" : 5126,
            "count" : 16224,
            "type" : "VEC3"
        },
        {
            "bufferView" : 32,
            "componentType" : 5123,
            "count" : 24336,
            "type" : "SCALAR"
        }
    ],
    "bufferViews" : [
        {
            "buffer" : 0,
            "byteLength" : 156864,
            "byteOffset" : 0,
            "target" : 34962
        },
        {
            "buffer" : 0,
            "byteLength" : 104576,
            "byteOffset" : 156864,
            "target" : 34962
        },
        {
            "buffer" : 0,
            "byteLength" : 156864,
            "byteOffset" : 261440,
            "target" : 34962
        },
        {
            "buffer" : 0,
            "byteLength" : 47064,
            "byteOffset" : 418304,
            "target" : 34963
        },
        {
            "buffer" : 0,
            "byteLength" : 42936,
            "byteOffset" : 465368,
            "target" : 34962
        },
        {
            "buffer" : 0,
            "byteLength" : 28624,
            "byteOffset" : 508304,
            "target" : 34962
        },
        {
            "buffer" : 0,
            "byteLength" : 42936,
            "byteOffset" : 536928,
            "target" : 34962
        },
        {
            "buffer" : 0,
            "byteLength" : 12792,
            "byteOffset" : 579864,
            "target" : 34963
        },
        {
            "buffer" : 0,
            "byteLength" : 156864,
            "byteOffset" : 592656,
            "target" : 34962
        },
        {
            "buffer" : 0,
            "byteLength" : 104576,
            "byteOffset" : 749520,
            "target" : 34962
        },
        {
            "buffer" : 0,
            "byteLength" : 156864,
            "byteOffset" : 854096,
            "target" : 34962
        },
        {
            "buffer" : 0,
            "byteLength" : 42936,
            "byteOffset" : 1010960,
            "target" : 34962
        },
        {
            "buffer" : 0,
            "byteLength" : 28624,
            "byteOffset" : 1053896,
            "target" : 34962
        },
        {
            "buffer" : 0,
            "byteLength" : 42936,
            "byteOffset" : 1082520,
            "target" : 34962
        },
        {
            "buffer" : 0,
            "byteLength" : 31836,
            "byteOffset" : 1125456,
            "target" : 34962
        },
        {
            "buffer" : 0,
            "byteLength" : 21224,
            "byteOffset" : 1157292,
            "target" : 34962
        },
        {
            "buffer" : 0,
            "byteLength" : 31836,
            "byteOffset" : 1178516,
            "target" : 34962
        },
        {
            "buffer" : 0,
            "byteLength" : 9696,
            "byteOffset" : 1210352,
            "target" : 34963
        },
        {
            "buffer" : 0,
            "byteLength" : 288,
            "byteOffset" : 1220048,
            "target" : 34962
        },
        {
            "buffer" : 0,
            "byteLength" : 192,
            "byteOffset" : 1220336,
            "target" : 34962
        },
        {
            "buffer" : 0,
            "byteLength" : 288,
            "byteOffset" : 1220528,
            "target" : 34962
        },
        {
            "buffer" : 0,
            "byteLength" : 72,
            "byteOffset" : 1220816,
            "target" : 34963
        },
        {
            "buffer" : 0,
            "byteLength" : 37354,
            "byteOffset" : 1220888
        },
        {
            "buffer" : 0,
            "byteLength" : 288,
            "byteOffset" : 1258244,
            "target" : 34962
        },
        {
            "buffer" : 0,
            "byteLength" : 192,
            "byteOffset" : 1258532,
            "target" : 34962
        },
        {
            "buffer" : 0,
            "byteLength" : 288,
            "byteOffset" : 1258724,
            "target" : 34962
        },
        {
            "buffer" : 0,
            "byteLength" : 31836,
            "byteOffset" : 1259012,
            "target" : 34962
        },
        {
            "buffer" : 0,
            "byteLength" : 21224,
            "byteOffset" : 1290848,
            "target" : 34962
        },
        {
            "buffer" : 0,
            "byteLength" : 31836,
            "byteOffset" : 1312072,
            "target" : 34962
        },
        {
            "buffer" : 0,
            "byteLength" : 194688,
            "byteOffset" : 1343908,
            "target" : 34962
        },
        {
            "buffer" : 0,
            "byteLength" : 129792,
            "byteOffset" : 1538596,
            "target" : 34962
        },
        {
            "buffer" : 0,
            "byteLength" : 194688,
            "byteOffset" : 1668388,
            "target" : 34962
        },
        {
            "buffer" : 0,
            "byteLength" : 48672,
            "byteOffset" : 1863076,
            "target" : 34963
        },
        {
            "buffer" : 0,
            "byteLength" : 174373,
            "byteOffset" : 1911748
        }
    ],
    "samplers" : [
        {
            "magFilter" : 9729,
            "minFilter" : 9987
        }
    ],
    "buffers" : [
        {
            "byteLength" : 2086124,
            "uri" : "data:application/octet-stream;base64,"
        }
    ]
}
