{
    "asset" : {
        "generator" : "Khronos glTF Blender I/O v3.4.50",
        "version" : "2.0"
    },
    "scene" : 0,
    "scenes" : [
        {
            "name" : "Scene",
            "nodes" : [
                0,
                1,
                2,
                3,
                4,
                5,
                6,
                7,
                8
            ]
        }
    ],
    "nodes" : [
        {
            "mesh" : 0,
            "name" : "Text.003",
            "rotation" : [
                0.5000008940696716,
                0.49999910593032837,
                -0.5000008940696716,
                0.49999910593032837
            ],
            "translation" : [
                25.30748748779297,
                -0.29938358068466187,
                0
            ]
        },
        {
            "mesh" : 1,
            "name" : "Text.004",
            "rotation" : [
                0.5000008940696716,
                0.49999910593032837,
                -0.5000008940696716,
                0.49999910593032837
            ],
            "scale" : [
                1.2701656818389893,
                1,
                1.2701656818389893
            ],
            "translation" : [
                25.289215087890625,
                -5.360110299079679e-05,
                2.422648776700953e-06
            ]
        },
        {
            "mesh" : 2,
            "name" : "Text.001",
            "rotation" : [
                0.5000008940696716,
                -0.49999910593032837,
                0.5000008940696716,
                0.49999910593032837
            ],
            "translation" : [
                -25.30748748779297,
                -0.29938358068466187,
                0
            ]
        },
        {
            "mesh" : 3,
            "name" : "Text.002",
            "rotation" : [
                0.5000008940696716,
                -0.49999910593032837,
                0.5000008940696716,
                0.49999910593032837
            ],
            "scale" : [
                1.2701656818389893,
                1,
                1.2701656818389893
            ],
            "translation" : [
                -25.289215087890625,
                -5.360110299079679e-05,
                0
            ]
        },
        {
            "mesh" : 4,
            "name" : "Text.006",
            "rotation" : [
                0.5000008940696716,
                -0.49999910593032837,
                0.5000008940696716,
                0.49999910593032837
            ],
            "scale" : [
                1.2701656818389893,
                1,
                1.2701656818389893
            ],
            "translation" : [
                -25.289215087890625,
                -5.360110299079679e-05,
                0
            ]
        },
        {
            "mesh" : 5,
            "name" : "Cube.002",
            "rotation" : [
                0,
                -0.7071068286895752,
                0,
                0.7071068286895752
            ],
            "scale" : [
                16.54683494567871,
                0.2977515459060669,
                0.2977515459060669
            ],
            "translation" : [
                -0.30316925048828125,
                -0.815093994140625,
                0
            ]
        },
        {
            "mesh" : 6,
            "name" : "Cube.001",
            "rotation" : [
                0,
                0.70710688829422,
                0,
                0.7071066498756409
            ],
            "scale" : [
                16.54683494567871,
                0.2977515459060669,
                0.2977515459060669
            ],
            "translation" : [
                0.30316925048828125,
                -0.815093994140625,
                0
            ]
        },
        {
            "mesh" : 7,
            "name" : "Text.007",
            "rotation" : [
                0.5000008344650269,
                0.4999992251396179,
                -0.5000009536743164,
                0.4999990463256836
            ],
            "scale" : [
                1.2701656818389893,
                1,
                1.2701656818389893
            ],
            "translation" : [
                25.289215087890625,
                -5.340576171875e-05,
                2.461111762386281e-06
            ]
        },
        {
            "mesh" : 8,
            "name" : "Cube.677",
            "scale" : [
                1.91684889793396,
                18.48897361755371,
                1.91684889793396
            ]
        }
    ],
    "materials" : [
        {
            "doubleSided" : true,
            "name" : "Text",
            "pbrMetallicRoughness" : {
                "baseColorFactor" : [
                    0.800000011920929,
                    0.800000011920929,
                    0.800000011920929,
                    1
                ],
                "metallicFactor" : 0,
                "roughnessFactor" : 0.5
            }
        },
        {
            "doubleSided" : true,
            "name" : "Material.005",
            "pbrMetallicRoughness" : {
                "baseColorTexture" : {
                    "index" : 0
                },
                "metallicFactor" : 0,
                "roughnessFactor" : 0.5
            }
        },
        {
            "alphaMode" : "BLEND",
            "doubleSided" : true,
            "name" : "AAA",
            "pbrMetallicRoughness" : {
                "baseColorTexture" : {
                    "index" : 1
                },
                "metallicFactor" : 0,
                "roughnessFactor" : 0.5
            }
        }
    ],
    "meshes" : [
        {
            "name" : "Text.027",
            "primitives" : [
                {
                    "attributes" : {
                        "POSITION" : 0,
                        "TEXCOORD_0" : 1,
                        "NORMAL" : 2
                    },
                    "indices" : 3,
                    "material" : 0
                }
            ]
        },
        {
            "name" : "Text.028",
            "primitives" : [
                {
                    "attributes" : {
                        "POSITION" : 4,
                        "TEXCOORD_0" : 5,
                        "NORMAL" : 6
                    },
                    "indices" : 7,
                    "material" : 0
                }
            ]
        },
        {
            "name" : "Text.002",
            "primitives" : [
                {
                    "attributes" : {
                        "POSITION" : 8,
                        "TEXCOORD_0" : 9,
                        "NORMAL" : 10
                    },
                    "indices" : 3,
                    "material" : 0
                }
            ]
        },
        {
            "name" : "Text.003",
            "primitives" : [
                {
                    "attributes" : {
                        "POSITION" : 11,
                        "TEXCOORD_0" : 12,
                        "NORMAL" : 13
                    },
                    "indices" : 7,
                    "material" : 0
                }
            ]
        },
        {
            "name" : "Text.004",
            "primitives" : [
                {
                    "attributes" : {
                        "POSITION" : 14,
                        "TEXCOORD_0" : 15,
                        "NORMAL" : 16
                    },
                    "indices" : 17,
                    "material" : 0
                }
            ]
        },
        {
            "name" : "Cube.001",
            "primitives" : [
                {
                    "attributes" : {
                        "POSITION" : 18,
                        "TEXCOORD_0" : 19,
                        "NORMAL" : 20
                    },
                    "indices" : 21,
                    "material" : 1
                }
            ]
        },
        {
            "name" : "Cube.002",
            "primitives" : [
                {
                    "attributes" : {
                        "POSITION" : 22,
                        "TEXCOORD_0" : 23,
                        "NORMAL" : 24
                    },
                    "indices" : 21,
                    "material" : 1
                }
            ]
        },
        {
            "name" : "Text.012",
            "primitives" : [
                {
                    "attributes" : {
                        "POSITION" : 25,
                        "TEXCOORD_0" : 26,
                        "NORMAL" : 27
                    },
                    "indices" : 17,
                    "material" : 0
                }
            ]
        },
        {
            "name" : "Cube.14091",
            "primitives" : [
                {
                    "attributes" : {
                        "POSITION" : 28,
                        "TEXCOORD_0" : 29,
                        "NORMAL" : 30
                    },
                    "indices" : 31,
                    "material" : 2
                }
            ]
        }
    ],
    "textures" : [
        {
            "sampler" : 0,
            "source" : 0
        },
        {
            "sampler" : 0,
            "source" : 1
        }
    ],
    "images" : [
        {
            "bufferView" : 22,
            "mimeType" : "image/png",
            "name" : "3381SW_READ"
        },
        {
            "bufferView" : 33,
            "mimeType" : "image/png",
            "name" : "3281SW_PM"
        }
    ],
    "accessors" : [
        {
            "bufferView" : 0,
            "componentType" : 5126,
            "count" : 12184,
            "max" : [
                11.646002769470215,
                0.09999999403953552,
                -1.9400897026062012
            ],
            "min" : [
                -11.625999450683594,
                -0.09999999403953552,
                -3.7880897521972656
            ],
            "type" : "VEC3"
        },
        {
            "bufferView" : 1,
            "componentType" : 5126,
            "count" : 12184,
            "type" : "VEC2"
        },
        {
            "bufferView" : 2,
            "componentType" : 5126,
            "count" : 12184,
            "type" : "VEC3"
        },
        {
            "bufferView" : 3,
            "componentType" : 5123,
            "count" : 21960,
            "type" : "SCALAR"
        },
        {
            "bufferView" : 4,
            "componentType" : 5126,
            "count" : 3844,
            "max" : [
                18.045833587646484,
                0.10000000149011612,
                -0.5983913540840149
            ],
            "min" : [
                13.326834678649902,
                -0.10000000149011612,
                -1.5083913803100586
            ],
            "type" : "VEC3"
        },
        {
            "bufferView" : 5,
            "componentType" : 5126,
            "count" : 3844,
            "type" : "VEC2"
        },
        {
            "bufferView" : 6,
            "componentType" : 5126,
            "count" : 3844,
            "type" : "VEC3"
        },
        {
            "bufferView" : 7,
            "componentType" : 5123,
            "count" : 7116,
            "type" : "SCALAR"
        },
        {
            "bufferView" : 8,
            "componentType" : 5126,
            "count" : 12184,
            "max" : [
                11.646002769470215,
                0.09999999403953552,
                -1.9400897026062012
            ],
            "min" : [
                -11.625999450683594,
                -0.09999999403953552,
                -3.7880897521972656
            ],
            "type" : "VEC3"
        },
        {
            "bufferView" : 9,
            "componentType" : 5126,
            "count" : 12184,
            "type" : "VEC2"
        },
        {
            "bufferView" : 10,
            "componentType" : 5126,
            "count" : 12184,
            "type" : "VEC3"
        },
        {
            "bufferView" : 11,
            "componentType" : 5126,
            "count" : 3844,
            "max" : [
                18.045833587646484,
                0.10000000149011612,
                -0.5983913540840149
            ],
            "min" : [
                13.326834678649902,
                -0.10000000149011612,
                -1.5083913803100586
            ],
            "type" : "VEC3"
        },
        {
            "bufferView" : 12,
            "componentType" : 5126,
            "count" : 3844,
            "type" : "VEC2"
        },
        {
            "bufferView" : 13,
            "componentType" : 5126,
            "count" : 3844,
            "type" : "VEC3"
        },
        {
            "bufferView" : 14,
            "componentType" : 5126,
            "count" : 3668,
            "max" : [
                -13.31253433227539,
                0.10000000149011612,
                -0.5983913540840149
            ],
            "min" : [
                -18.039335250854492,
                -0.10000000149011612,
                -1.5083913803100586
            ],
            "type" : "VEC3"
        },
        {
            "bufferView" : 15,
            "componentType" : 5126,
            "count" : 3668,
            "type" : "VEC2"
        },
        {
            "bufferView" : 16,
            "componentType" : 5126,
            "count" : 3668,
            "type" : "VEC3"
        },
        {
            "bufferView" : 17,
            "componentType" : 5123,
            "count" : 6648,
            "type" : "SCALAR"
        },
        {
            "bufferView" : 18,
            "componentType" : 5126,
            "count" : 24,
            "max" : [
                1,
                7.717007637023926,
                84.9339599609375
            ],
            "min" : [
                -1,
                5.717007637023926,
                82.9339599609375
            ],
            "type" : "VEC3"
        },
        {
            "bufferView" : 19,
            "componentType" : 5126,
            "count" : 24,
            "type" : "VEC2"
        },
        {
            "bufferView" : 20,
            "componentType" : 5126,
            "count" : 24,
            "type" : "VEC3"
        },
        {
            "bufferView" : 21,
            "componentType" : 5123,
            "count" : 36,
            "type" : "SCALAR"
        },
        {
            "bufferView" : 23,
            "componentType" : 5126,
            "count" : 24,
            "max" : [
                1,
                7.717007637023926,
                84.9339599609375
            ],
            "min" : [
                -1,
                5.717007637023926,
                82.9339599609375
            ],
            "type" : "VEC3"
        },
        {
            "bufferView" : 24,
            "componentType" : 5126,
            "count" : 24,
            "type" : "VEC2"
        },
        {
            "bufferView" : 25,
            "componentType" : 5126,
            "count" : 24,
            "type" : "VEC3"
        },
        {
            "bufferView" : 26,
            "componentType" : 5126,
            "count" : 3668,
            "max" : [
                -13.31253433227539,
                0.10000000149011612,
                -0.5983913540840149
            ],
            "min" : [
                -18.039335250854492,
                -0.10000000149011612,
                -1.5083913803100586
            ],
            "type" : "VEC3"
        },
        {
            "bufferView" : 27,
            "componentType" : 5126,
            "count" : 3668,
            "type" : "VEC2"
        },
        {
            "bufferView" : 28,
            "componentType" : 5126,
            "count" : 3668,
            "type" : "VEC3"
        },
        {
            "bufferView" : 29,
            "componentType" : 5126,
            "count" : 16224,
            "max" : [
                13.000000953674316,
                7.606741905212402,
                12.999999046325684
            ],
            "min" : [
                -12.999999046325684,
                5.960464477539063e-08,
                -13.000000953674316
            ],
            "type" : "VEC3"
        },
        {
            "bufferView" : 30,
            "componentType" : 5126,
            "count" : 16224,
            "type" : "VEC2"
        },
        {
            "bufferView" : 31,
            "componentType" : 5126,
            "count" : 16224,
            "type" : "VEC3"
        },
        {
            "bufferView" : 32,
            "componentType" : 5123,
            "count" : 24336,
            "type" : "SCALAR"
        }
    ],
    "bufferViews" : [
        {
            "buffer" : 0,
            "byteLength" : 146208,
            "byteOffset" : 0,
            "target" : 34962
        },
        {
            "buffer" : 0,
            "byteLength" : 97472,
            "byteOffset" : 146208,
            "target" : 34962
        },
        {
            "buffer" : 0,
            "byteLength" : 146208,
            "byteOffset" : 243680,
            "target" : 34962
        },
        {
            "buffer" : 0,
            "byteLength" : 43920,
            "byteOffset" : 389888,
            "target" : 34963
        },
        {
            "buffer" : 0,
            "byteLength" : 46128,
            "byteOffset" : 433808,
            "target" : 34962
        },
        {
            "buffer" : 0,
            "byteLength" : 30752,
            "byteOffset" : 479936,
            "target" : 34962
        },
        {
            "buffer" : 0,
            "byteLength" : 46128,
            "byteOffset" : 510688,
            "target" : 34962
        },
        {
            "buffer" : 0,
            "byteLength" : 14232,
            "byteOffset" : 556816,
            "target" : 34963
        },
        {
            "buffer" : 0,
            "byteLength" : 146208,
            "byteOffset" : 571048,
            "target" : 34962
        },
        {
            "buffer" : 0,
            "byteLength" : 97472,
            "byteOffset" : 717256,
            "target" : 34962
        },
        {
            "buffer" : 0,
            "byteLength" : 146208,
            "byteOffset" : 814728,
            "target" : 34962
        },
        {
            "buffer" : 0,
            "byteLength" : 46128,
            "byteOffset" : 960936,
            "target" : 34962
        },
        {
            "buffer" : 0,
            "byteLength" : 30752,
            "byteOffset" : 1007064,
            "target" : 34962
        },
        {
            "buffer" : 0,
            "byteLength" : 46128,
            "byteOffset" : 1037816,
            "target" : 34962
        },
        {
            "buffer" : 0,
            "byteLength" : 44016,
            "byteOffset" : 1083944,
            "target" : 34962
        },
        {
            "buffer" : 0,
            "byteLength" : 29344,
            "byteOffset" : 1127960,
            "target" : 34962
        },
        {
            "buffer" : 0,
            "byteLength" : 44016,
            "byteOffset" : 1157304,
            "target" : 34962
        },
        {
            "buffer" : 0,
            "byteLength" : 13296,
            "byteOffset" : 1201320,
            "target" : 34963
        },
        {
            "buffer" : 0,
            "byteLength" : 288,
            "byteOffset" : 1214616,
            "target" : 34962
        },
        {
            "buffer" : 0,
            "byteLength" : 192,
            "byteOffset" : 1214904,
            "target" : 34962
        },
        {
            "buffer" : 0,
            "byteLength" : 288,
            "byteOffset" : 1215096,
            "target" : 34962
        },
        {
            "buffer" : 0,
            "byteLength" : 72,
            "byteOffset" : 1215384,
            "target" : 34963
        },
        {
            "buffer" : 0,
            "byteLength" : 37354,
            "byteOffset" : 1215456
        },
        {
            "buffer" : 0,
            "byteLength" : 288,
            "byteOffset" : 1252812,
            "target" : 34962
        },
        {
            "buffer" : 0,
            "byteLength" : 192,
            "byteOffset" : 1253100,
            "target" : 34962
        },
        {
            "buffer" : 0,
            "byteLength" : 288,
            "byteOffset" : 1253292,
            "target" : 34962
        },
        {
            "buffer" : 0,
            "byteLength" : 44016,
            "byteOffset" : 1253580,
            "target" : 34962
        },
        {
            "buffer" : 0,
            "byteLength" : 29344,
            "byteOffset" : 1297596,
            "target" : 34962
        },
        {
            "buffer" : 0,
            "byteLength" : 44016,
            "byteOffset" : 1326940,
            "target" : 34962
        },
        {
            "buffer" : 0,
            "byteLength" : 194688,
            "byteOffset" : 1370956,
            "target" : 34962
        },
        {
            "buffer" : 0,
            "byteLength" : 129792,
            "byteOffset" : 1565644,
            "target" : 34962
        },
        {
            "buffer" : 0,
            "byteLength" : 194688,
            "byteOffset" : 1695436,
            "target" : 34962
        },
        {
            "buffer" : 0,
            "byteLength" : 48672,
            "byteOffset" : 1890124,
            "target" : 34963
        },
        {
            "buffer" : 0,
            "byteLength" : 299149,
            "byteOffset" : 1938796
        }
    ],
    "samplers" : [
        {
            "magFilter" : 9729,
            "minFilter" : 9987
        }
    ],
    "buffers" : [
        {
            "byteLength" : 2237948,
            "uri" : "data:application/octet-stream;base64,"
        }
    ]
}
