{
    "asset" : {
        "generator" : "Khronos glTF Blender I/O v3.4.50",
        "version" : "2.0"
    },
    "scene" : 0,
    "scenes" : [
        {
            "name" : "Scene",
            "nodes" : [
                0,
                1,
                2,
                3,
                4,
                5,
                6,
                7
            ]
        }
    ],
    "nodes" : [
        {
            "mesh" : 0,
            "name" : "Text.003",
            "rotation" : [
                0.5000008940696716,
                0.49999910593032837,
                -0.5000008940696716,
                0.49999910593032837
            ],
            "translation" : [
                25.30748748779297,
                -0.29938358068466187,
                0
            ]
        },
        {
            "mesh" : 1,
            "name" : "Text.004",
            "rotation" : [
                0.5000008940696716,
                0.49999910593032837,
                -0.5000008940696716,
                0.49999910593032837
            ],
            "scale" : [
                1.2701656818389893,
                1,
                1.2701656818389893
            ],
            "translation" : [
                25.289213180541992,
                -5.360110299079679e-05,
                2.422648776700953e-06
            ]
        },
        {
            "mesh" : 2,
            "name" : "Text.001",
            "rotation" : [
                0.5000008940696716,
                -0.49999910593032837,
                0.5000008940696716,
                0.49999910593032837
            ],
            "translation" : [
                -25.30748748779297,
                -0.29938358068466187,
                0
            ]
        },
        {
            "mesh" : 3,
            "name" : "Text.002",
            "rotation" : [
                0.5000008940696716,
                -0.49999910593032837,
                0.5000008940696716,
                0.49999910593032837
            ],
            "scale" : [
                1.2701656818389893,
                1,
                1.2701656818389893
            ],
            "translation" : [
                -25.289213180541992,
                -5.360110299079679e-05,
                0
            ]
        },
        {
            "mesh" : 4,
            "name" : "Text.006",
            "rotation" : [
                0.5000008940696716,
                -0.49999910593032837,
                0.5000008940696716,
                0.49999910593032837
            ],
            "scale" : [
                1.2701656818389893,
                1,
                1.2701656818389893
            ],
            "translation" : [
                -25.289213180541992,
                -5.360110299079679e-05,
                0
            ]
        },
        {
            "mesh" : 5,
            "name" : "Cube.002",
            "rotation" : [
                0,
                -0.7071068286895752,
                0,
                0.7071068286895752
            ],
            "scale" : [
                16.54683494567871,
                0.2977515459060669,
                0.2977515459060669
            ],
            "translation" : [
                -0.3031727969646454,
                -0.815093994140625,
                0
            ]
        },
        {
            "mesh" : 6,
            "name" : "Cube.020",
            "scale" : [
                1.9233717918395996,
                8.3792142868042,
                1.9233717918395996
            ],
            "translation" : [
                0,
                9.527870178222656,
                0
            ]
        },
        {
            "mesh" : 7,
            "name" : "Text.007",
            "rotation" : [
                0.5000008344650269,
                0.4999992251396179,
                -0.5000009536743164,
                0.4999990463256836
            ],
            "scale" : [
                1.2701656818389893,
                1,
                1.2701656818389893
            ],
            "translation" : [
                25.289213180541992,
                -5.340576171875e-05,
                2.461111762386281e-06
            ]
        }
    ],
    "materials" : [
        {
            "doubleSided" : true,
            "name" : "Text",
            "pbrMetallicRoughness" : {
                "baseColorFactor" : [
                    0.800000011920929,
                    0.800000011920929,
                    0.800000011920929,
                    1
                ],
                "metallicFactor" : 0,
                "roughnessFactor" : 0.5
            }
        },
        {
            "doubleSided" : true,
            "name" : "Material.005",
            "pbrMetallicRoughness" : {
                "baseColorTexture" : {
                    "index" : 0
                },
                "metallicFactor" : 0,
                "roughnessFactor" : 0.5
            }
        },
        {
            "alphaMode" : "BLEND",
            "doubleSided" : true,
            "name" : "AAA",
            "pbrMetallicRoughness" : {
                "baseColorTexture" : {
                    "index" : 1
                },
                "metallicFactor" : 0,
                "roughnessFactor" : 0.5
            }
        }
    ],
    "meshes" : [
        {
            "name" : "Text.027",
            "primitives" : [
                {
                    "attributes" : {
                        "POSITION" : 0,
                        "TEXCOORD_0" : 1,
                        "NORMAL" : 2
                    },
                    "indices" : 3,
                    "material" : 0
                }
            ]
        },
        {
            "name" : "Text.028",
            "primitives" : [
                {
                    "attributes" : {
                        "POSITION" : 4,
                        "TEXCOORD_0" : 5,
                        "NORMAL" : 6
                    },
                    "indices" : 7,
                    "material" : 0
                }
            ]
        },
        {
            "name" : "Text.002",
            "primitives" : [
                {
                    "attributes" : {
                        "POSITION" : 8,
                        "TEXCOORD_0" : 9,
                        "NORMAL" : 10
                    },
                    "indices" : 3,
                    "material" : 0
                }
            ]
        },
        {
            "name" : "Text.003",
            "primitives" : [
                {
                    "attributes" : {
                        "POSITION" : 11,
                        "TEXCOORD_0" : 12,
                        "NORMAL" : 13
                    },
                    "indices" : 7,
                    "material" : 0
                }
            ]
        },
        {
            "name" : "Text.004",
            "primitives" : [
                {
                    "attributes" : {
                        "POSITION" : 14,
                        "TEXCOORD_0" : 15,
                        "NORMAL" : 16
                    },
                    "indices" : 17,
                    "material" : 0
                }
            ]
        },
        {
            "name" : "Cube.001",
            "primitives" : [
                {
                    "attributes" : {
                        "POSITION" : 18,
                        "TEXCOORD_0" : 19,
                        "NORMAL" : 20
                    },
                    "indices" : 21,
                    "material" : 1
                }
            ]
        },
        {
            "name" : "Cube.9373",
            "primitives" : [
                {
                    "attributes" : {
                        "POSITION" : 22,
                        "TEXCOORD_0" : 23,
                        "NORMAL" : 24
                    },
                    "indices" : 25,
                    "material" : 2
                }
            ]
        },
        {
            "name" : "Text.012",
            "primitives" : [
                {
                    "attributes" : {
                        "POSITION" : 26,
                        "TEXCOORD_0" : 27,
                        "NORMAL" : 28
                    },
                    "indices" : 17,
                    "material" : 0
                }
            ]
        }
    ],
    "textures" : [
        {
            "sampler" : 0,
            "source" : 0
        },
        {
            "sampler" : 0,
            "source" : 1
        }
    ],
    "images" : [
        {
            "bufferView" : 22,
            "mimeType" : "image/png",
            "name" : "3381SW_READ"
        },
        {
            "bufferView" : 27,
            "mimeType" : "image/png",
            "name" : "3281SW_PM"
        }
    ],
    "accessors" : [
        {
            "bufferView" : 0,
            "componentType" : 5126,
            "count" : 13194,
            "max" : [
                12.052002906799316,
                0.09999999403953552,
                -1.9400897026062012
            ],
            "min" : [
                -12.039999008178711,
                -0.09999999403953552,
                -3.7880897521972656
            ],
            "type" : "VEC3"
        },
        {
            "bufferView" : 1,
            "componentType" : 5126,
            "count" : 13194,
            "type" : "VEC2"
        },
        {
            "bufferView" : 2,
            "componentType" : 5126,
            "count" : 13194,
            "type" : "VEC3"
        },
        {
            "bufferView" : 3,
            "componentType" : 5123,
            "count" : 23952,
            "type" : "SCALAR"
        },
        {
            "bufferView" : 4,
            "componentType" : 5126,
            "count" : 5222,
            "max" : [
                18.058834075927734,
                0.10000000149011612,
                -0.5983913540840149
            ],
            "min" : [
                13.306035041809082,
                -0.10000000149011612,
                -1.5083913803100586
            ],
            "type" : "VEC3"
        },
        {
            "bufferView" : 5,
            "componentType" : 5126,
            "count" : 5222,
            "type" : "VEC2"
        },
        {
            "bufferView" : 6,
            "componentType" : 5126,
            "count" : 5222,
            "type" : "VEC3"
        },
        {
            "bufferView" : 7,
            "componentType" : 5123,
            "count" : 9516,
            "type" : "SCALAR"
        },
        {
            "bufferView" : 8,
            "componentType" : 5126,
            "count" : 13194,
            "max" : [
                12.052002906799316,
                0.09999999403953552,
                -1.9400897026062012
            ],
            "min" : [
                -12.039999008178711,
                -0.09999999403953552,
                -3.7880897521972656
            ],
            "type" : "VEC3"
        },
        {
            "bufferView" : 9,
            "componentType" : 5126,
            "count" : 13194,
            "type" : "VEC2"
        },
        {
            "bufferView" : 10,
            "componentType" : 5126,
            "count" : 13194,
            "type" : "VEC3"
        },
        {
            "bufferView" : 11,
            "componentType" : 5126,
            "count" : 5222,
            "max" : [
                18.058834075927734,
                0.10000000149011612,
                -0.5983913540840149
            ],
            "min" : [
                13.306035041809082,
                -0.10000000149011612,
                -1.5083913803100586
            ],
            "type" : "VEC3"
        },
        {
            "bufferView" : 12,
            "componentType" : 5126,
            "count" : 5222,
            "type" : "VEC2"
        },
        {
            "bufferView" : 13,
            "componentType" : 5126,
            "count" : 5222,
            "type" : "VEC3"
        },
        {
            "bufferView" : 14,
            "componentType" : 5126,
            "count" : 4692,
            "max" : [
                -13.360635757446289,
                0.10000000149011612,
                -0.5983913540840149
            ],
            "min" : [
                -17.833934783935547,
                -0.10000000149011612,
                -1.5083913803100586
            ],
            "type" : "VEC3"
        },
        {
            "bufferView" : 15,
            "componentType" : 5126,
            "count" : 4692,
            "type" : "VEC2"
        },
        {
            "bufferView" : 16,
            "componentType" : 5126,
            "count" : 4692,
            "type" : "VEC3"
        },
        {
            "bufferView" : 17,
            "componentType" : 5123,
            "count" : 8628,
            "type" : "SCALAR"
        },
        {
            "bufferView" : 18,
            "componentType" : 5126,
            "count" : 24,
            "max" : [
                1,
                7.717007637023926,
                84.9339599609375
            ],
            "min" : [
                -1,
                5.717007637023926,
                82.9339599609375
            ],
            "type" : "VEC3"
        },
        {
            "bufferView" : 19,
            "componentType" : 5126,
            "count" : 24,
            "type" : "VEC2"
        },
        {
            "bufferView" : 20,
            "componentType" : 5126,
            "count" : 24,
            "type" : "VEC3"
        },
        {
            "bufferView" : 21,
            "componentType" : 5123,
            "count" : 36,
            "type" : "SCALAR"
        },
        {
            "bufferView" : 23,
            "componentType" : 5126,
            "count" : 16224,
            "max" : [
                13,
                1.5524564981460571,
                13
            ],
            "min" : [
                -13,
                -1.4064617156982422,
                -13
            ],
            "type" : "VEC3"
        },
        {
            "bufferView" : 24,
            "componentType" : 5126,
            "count" : 16224,
            "type" : "VEC2"
        },
        {
            "bufferView" : 25,
            "componentType" : 5126,
            "count" : 16224,
            "type" : "VEC3"
        },
        {
            "bufferView" : 26,
            "componentType" : 5123,
            "count" : 24336,
            "type" : "SCALAR"
        },
        {
            "bufferView" : 28,
            "componentType" : 5126,
            "count" : 4692,
            "max" : [
                -13.360635757446289,
                0.10000000149011612,
                -0.5983913540840149
            ],
            "min" : [
                -17.833934783935547,
                -0.10000000149011612,
                -1.5083913803100586
            ],
            "type" : "VEC3"
        },
        {
            "bufferView" : 29,
            "componentType" : 5126,
            "count" : 4692,
            "type" : "VEC2"
        },
        {
            "bufferView" : 30,
            "componentType" : 5126,
            "count" : 4692,
            "type" : "VEC3"
        }
    ],
    "bufferViews" : [
        {
            "buffer" : 0,
            "byteLength" : 158328,
            "byteOffset" : 0,
            "target" : 34962
        },
        {
            "buffer" : 0,
            "byteLength" : 105552,
            "byteOffset" : 158328,
            "target" : 34962
        },
        {
            "buffer" : 0,
            "byteLength" : 158328,
            "byteOffset" : 263880,
            "target" : 34962
        },
        {
            "buffer" : 0,
            "byteLength" : 47904,
            "byteOffset" : 422208,
            "target" : 34963
        },
        {
            "buffer" : 0,
            "byteLength" : 62664,
            "byteOffset" : 470112,
            "target" : 34962
        },
        {
            "buffer" : 0,
            "byteLength" : 41776,
            "byteOffset" : 532776,
            "target" : 34962
        },
        {
            "buffer" : 0,
            "byteLength" : 62664,
            "byteOffset" : 574552,
            "target" : 34962
        },
        {
            "buffer" : 0,
            "byteLength" : 19032,
            "byteOffset" : 637216,
            "target" : 34963
        },
        {
            "buffer" : 0,
            "byteLength" : 158328,
            "byteOffset" : 656248,
            "target" : 34962
        },
        {
            "buffer" : 0,
            "byteLength" : 105552,
            "byteOffset" : 814576,
            "target" : 34962
        },
        {
            "buffer" : 0,
            "byteLength" : 158328,
            "byteOffset" : 920128,
            "target" : 34962
        },
        {
            "buffer" : 0,
            "byteLength" : 62664,
            "byteOffset" : 1078456,
            "target" : 34962
        },
        {
            "buffer" : 0,
            "byteLength" : 41776,
            "byteOffset" : 1141120,
            "target" : 34962
        },
        {
            "buffer" : 0,
            "byteLength" : 62664,
            "byteOffset" : 1182896,
            "target" : 34962
        },
        {
            "buffer" : 0,
            "byteLength" : 56304,
            "byteOffset" : 1245560,
            "target" : 34962
        },
        {
            "buffer" : 0,
            "byteLength" : 37536,
            "byteOffset" : 1301864,
            "target" : 34962
        },
        {
            "buffer" : 0,
            "byteLength" : 56304,
            "byteOffset" : 1339400,
            "target" : 34962
        },
        {
            "buffer" : 0,
            "byteLength" : 17256,
            "byteOffset" : 1395704,
            "target" : 34963
        },
        {
            "buffer" : 0,
            "byteLength" : 288,
            "byteOffset" : 1412960,
            "target" : 34962
        },
        {
            "buffer" : 0,
            "byteLength" : 192,
            "byteOffset" : 1413248,
            "target" : 34962
        },
        {
            "buffer" : 0,
            "byteLength" : 288,
            "byteOffset" : 1413440,
            "target" : 34962
        },
        {
            "buffer" : 0,
            "byteLength" : 72,
            "byteOffset" : 1413728,
            "target" : 34963
        },
        {
            "buffer" : 0,
            "byteLength" : 37354,
            "byteOffset" : 1413800
        },
        {
            "buffer" : 0,
            "byteLength" : 194688,
            "byteOffset" : 1451156,
            "target" : 34962
        },
        {
            "buffer" : 0,
            "byteLength" : 129792,
            "byteOffset" : 1645844,
            "target" : 34962
        },
        {
            "buffer" : 0,
            "byteLength" : 194688,
            "byteOffset" : 1775636,
            "target" : 34962
        },
        {
            "buffer" : 0,
            "byteLength" : 48672,
            "byteOffset" : 1970324,
            "target" : 34963
        },
        {
            "buffer" : 0,
            "byteLength" : 131995,
            "byteOffset" : 2018996
        },
        {
            "buffer" : 0,
            "byteLength" : 56304,
            "byteOffset" : 2150992,
            "target" : 34962
        },
        {
            "buffer" : 0,
            "byteLength" : 37536,
            "byteOffset" : 2207296,
            "target" : 34962
        },
        {
            "buffer" : 0,
            "byteLength" : 56304,
            "byteOffset" : 2244832,
            "target" : 34962
        }
    ],
    "samplers" : [
        {
            "magFilter" : 9729,
            "minFilter" : 9987
        }
    ],
    "buffers" : [
        {
            "byteLength" : 2301136,
            "uri" : "data:application/octet-stream;base64,"
        }
    ]
}
