{
    "asset" : {
        "generator" : "Khronos glTF Blender I/O v3.4.50",
        "version" : "2.0"
    },
    "scene" : 0,
    "scenes" : [
        {
            "name" : "Scene",
            "nodes" : [
                0,
                1,
                2,
                3,
                4,
                5,
                6,
                7,
                8
            ]
        }
    ],
    "nodes" : [
        {
            "mesh" : 0,
            "name" : "Text.003",
            "rotation" : [
                0.5000008940696716,
                0.49999910593032837,
                -0.5000008940696716,
                0.49999910593032837
            ],
            "translation" : [
                25.30748748779297,
                -0.29938358068466187,
                0
            ]
        },
        {
            "mesh" : 1,
            "name" : "Text.004",
            "rotation" : [
                0.5000008940696716,
                0.49999910593032837,
                -0.5000008940696716,
                0.49999910593032837
            ],
            "scale" : [
                1.2701656818389893,
                1,
                1.2701656818389893
            ],
            "translation" : [
                25.289213180541992,
                -5.360110299079679e-05,
                2.422648776700953e-06
            ]
        },
        {
            "mesh" : 2,
            "name" : "Text.005",
            "rotation" : [
                0.5000008940696716,
                0.49999910593032837,
                -0.5000008940696716,
                0.49999910593032837
            ],
            "scale" : [
                1.2701656818389893,
                1,
                1.2701656818389893
            ],
            "translation" : [
                25.289213180541992,
                -5.360110299079679e-05,
                2.422648776700953e-06
            ]
        },
        {
            "mesh" : 3,
            "name" : "Text.001",
            "rotation" : [
                0.5000008940696716,
                -0.49999910593032837,
                0.5000008940696716,
                0.49999910593032837
            ],
            "translation" : [
                -25.30748748779297,
                -0.29938358068466187,
                0
            ]
        },
        {
            "mesh" : 4,
            "name" : "Text.002",
            "rotation" : [
                0.5000008940696716,
                -0.49999910593032837,
                0.5000008940696716,
                0.49999910593032837
            ],
            "scale" : [
                1.2701656818389893,
                1,
                1.2701656818389893
            ],
            "translation" : [
                -25.289213180541992,
                -5.360110299079679e-05,
                0
            ]
        },
        {
            "mesh" : 5,
            "name" : "Text.006",
            "rotation" : [
                0.5000008940696716,
                -0.49999910593032837,
                0.5000008940696716,
                0.49999910593032837
            ],
            "scale" : [
                1.2701656818389893,
                1,
                1.2701656818389893
            ],
            "translation" : [
                -25.289213180541992,
                -5.360110299079679e-05,
                0
            ]
        },
        {
            "mesh" : 6,
            "name" : "Cube.002",
            "rotation" : [
                0,
                -0.7071068286895752,
                0,
                0.7071068286895752
            ],
            "scale" : [
                16.54683494567871,
                0.2977515459060669,
                0.2977515459060669
            ],
            "translation" : [
                -0.3031727969646454,
                -0.815093994140625,
                0
            ]
        },
        {
            "mesh" : 7,
            "name" : "Cube.001",
            "rotation" : [
                0,
                0.70710688829422,
                0,
                0.7071066498756409
            ],
            "scale" : [
                16.54683494567871,
                0.2977515459060669,
                0.2977515459060669
            ],
            "translation" : [
                0.3031727969646454,
                -0.815093994140625,
                0
            ]
        },
        {
            "mesh" : 8,
            "name" : "Cube.677",
            "scale" : [
                1.9212148189544678,
                47.31928634643555,
                1.9212148189544678
            ],
            "translation" : [
                0,
                -22.562044143676758,
                0
            ]
        }
    ],
    "materials" : [
        {
            "doubleSided" : true,
            "name" : "Text",
            "pbrMetallicRoughness" : {
                "baseColorFactor" : [
                    0.800000011920929,
                    0.800000011920929,
                    0.800000011920929,
                    1
                ],
                "metallicFactor" : 0,
                "roughnessFactor" : 0.5
            }
        },
        {
            "doubleSided" : true,
            "name" : "Material.005",
            "pbrMetallicRoughness" : {
                "baseColorTexture" : {
                    "index" : 0
                },
                "metallicFactor" : 0,
                "roughnessFactor" : 0.5
            }
        },
        {
            "alphaMode" : "BLEND",
            "doubleSided" : true,
            "name" : "Material",
            "pbrMetallicRoughness" : {
                "baseColorTexture" : {
                    "index" : 1
                },
                "metallicFactor" : 0,
                "roughnessFactor" : 0.5
            }
        }
    ],
    "meshes" : [
        {
            "name" : "Text.027",
            "primitives" : [
                {
                    "attributes" : {
                        "POSITION" : 0,
                        "TEXCOORD_0" : 1,
                        "NORMAL" : 2
                    },
                    "indices" : 3,
                    "material" : 0
                }
            ]
        },
        {
            "name" : "Text.028",
            "primitives" : [
                {
                    "attributes" : {
                        "POSITION" : 4,
                        "TEXCOORD_0" : 5,
                        "NORMAL" : 6
                    },
                    "indices" : 7,
                    "material" : 0
                }
            ]
        },
        {
            "name" : "Text.029",
            "primitives" : [
                {
                    "attributes" : {
                        "POSITION" : 8,
                        "TEXCOORD_0" : 9,
                        "NORMAL" : 10
                    },
                    "indices" : 11,
                    "material" : 0
                }
            ]
        },
        {
            "name" : "Text.002",
            "primitives" : [
                {
                    "attributes" : {
                        "POSITION" : 12,
                        "TEXCOORD_0" : 13,
                        "NORMAL" : 14
                    },
                    "indices" : 3,
                    "material" : 0
                }
            ]
        },
        {
            "name" : "Text.003",
            "primitives" : [
                {
                    "attributes" : {
                        "POSITION" : 15,
                        "TEXCOORD_0" : 16,
                        "NORMAL" : 17
                    },
                    "indices" : 7,
                    "material" : 0
                }
            ]
        },
        {
            "name" : "Text.004",
            "primitives" : [
                {
                    "attributes" : {
                        "POSITION" : 18,
                        "TEXCOORD_0" : 19,
                        "NORMAL" : 20
                    },
                    "indices" : 11,
                    "material" : 0
                }
            ]
        },
        {
            "name" : "Cube.001",
            "primitives" : [
                {
                    "attributes" : {
                        "POSITION" : 21,
                        "TEXCOORD_0" : 22,
                        "NORMAL" : 23
                    },
                    "indices" : 24,
                    "material" : 1
                }
            ]
        },
        {
            "name" : "Cube.002",
            "primitives" : [
                {
                    "attributes" : {
                        "POSITION" : 25,
                        "TEXCOORD_0" : 26,
                        "NORMAL" : 27
                    },
                    "indices" : 24,
                    "material" : 1
                }
            ]
        },
        {
            "name" : "Cube.8675",
            "primitives" : [
                {
                    "attributes" : {
                        "POSITION" : 28,
                        "TEXCOORD_0" : 29,
                        "NORMAL" : 30
                    },
                    "indices" : 31,
                    "material" : 2
                }
            ]
        }
    ],
    "textures" : [
        {
            "sampler" : 0,
            "source" : 0
        },
        {
            "sampler" : 0,
            "source" : 1
        }
    ],
    "images" : [
        {
            "bufferView" : 25,
            "mimeType" : "image/png",
            "name" : "3381SW_READ"
        },
        {
            "bufferView" : 33,
            "mimeType" : "image/png",
            "name" : "3281SW_PM"
        }
    ],
    "accessors" : [
        {
            "bufferView" : 0,
            "componentType" : 5126,
            "count" : 12184,
            "max" : [
                11.646002769470215,
                0.09999999403953552,
                -1.9400897026062012
            ],
            "min" : [
                -11.625999450683594,
                -0.09999999403953552,
                -3.7880897521972656
            ],
            "type" : "VEC3"
        },
        {
            "bufferView" : 1,
            "componentType" : 5126,
            "count" : 12184,
            "type" : "VEC2"
        },
        {
            "bufferView" : 2,
            "componentType" : 5126,
            "count" : 12184,
            "type" : "VEC3"
        },
        {
            "bufferView" : 3,
            "componentType" : 5123,
            "count" : 21960,
            "type" : "SCALAR"
        },
        {
            "bufferView" : 4,
            "componentType" : 5126,
            "count" : 4200,
            "max" : [
                18.045833587646484,
                0.10000000149011612,
                -0.5983913540840149
            ],
            "min" : [
                13.3450345993042,
                -0.10000000149011612,
                -1.5083913803100586
            ],
            "type" : "VEC3"
        },
        {
            "bufferView" : 5,
            "componentType" : 5126,
            "count" : 4200,
            "type" : "VEC2"
        },
        {
            "bufferView" : 6,
            "componentType" : 5126,
            "count" : 4200,
            "type" : "VEC3"
        },
        {
            "bufferView" : 7,
            "componentType" : 5123,
            "count" : 7764,
            "type" : "SCALAR"
        },
        {
            "bufferView" : 8,
            "componentType" : 5126,
            "count" : 3773,
            "max" : [
                -13.342435836791992,
                0.10000000149011612,
                -0.5983913540840149
            ],
            "min" : [
                -18.03153419494629,
                -0.10000000149011612,
                -1.5083913803100586
            ],
            "type" : "VEC3"
        },
        {
            "bufferView" : 9,
            "componentType" : 5126,
            "count" : 3773,
            "type" : "VEC2"
        },
        {
            "bufferView" : 10,
            "componentType" : 5126,
            "count" : 3773,
            "type" : "VEC3"
        },
        {
            "bufferView" : 11,
            "componentType" : 5123,
            "count" : 6972,
            "type" : "SCALAR"
        },
        {
            "bufferView" : 12,
            "componentType" : 5126,
            "count" : 12184,
            "max" : [
                11.646002769470215,
                0.09999999403953552,
                -1.9400897026062012
            ],
            "min" : [
                -11.625999450683594,
                -0.09999999403953552,
                -3.7880897521972656
            ],
            "type" : "VEC3"
        },
        {
            "bufferView" : 13,
            "componentType" : 5126,
            "count" : 12184,
            "type" : "VEC2"
        },
        {
            "bufferView" : 14,
            "componentType" : 5126,
            "count" : 12184,
            "type" : "VEC3"
        },
        {
            "bufferView" : 15,
            "componentType" : 5126,
            "count" : 4200,
            "max" : [
                18.045833587646484,
                0.10000000149011612,
                -0.5983913540840149
            ],
            "min" : [
                13.3450345993042,
                -0.10000000149011612,
                -1.5083913803100586
            ],
            "type" : "VEC3"
        },
        {
            "bufferView" : 16,
            "componentType" : 5126,
            "count" : 4200,
            "type" : "VEC2"
        },
        {
            "bufferView" : 17,
            "componentType" : 5126,
            "count" : 4200,
            "type" : "VEC3"
        },
        {
            "bufferView" : 18,
            "componentType" : 5126,
            "count" : 3773,
            "max" : [
                -13.342435836791992,
                0.10000000149011612,
                -0.5983913540840149
            ],
            "min" : [
                -18.03153419494629,
                -0.10000000149011612,
                -1.5083913803100586
            ],
            "type" : "VEC3"
        },
        {
            "bufferView" : 19,
            "componentType" : 5126,
            "count" : 3773,
            "type" : "VEC2"
        },
        {
            "bufferView" : 20,
            "componentType" : 5126,
            "count" : 3773,
            "type" : "VEC3"
        },
        {
            "bufferView" : 21,
            "componentType" : 5126,
            "count" : 24,
            "max" : [
                1,
                7.717007637023926,
                84.9339599609375
            ],
            "min" : [
                -1,
                5.717007637023926,
                82.9339599609375
            ],
            "type" : "VEC3"
        },
        {
            "bufferView" : 22,
            "componentType" : 5126,
            "count" : 24,
            "type" : "VEC2"
        },
        {
            "bufferView" : 23,
            "componentType" : 5126,
            "count" : 24,
            "type" : "VEC3"
        },
        {
            "bufferView" : 24,
            "componentType" : 5123,
            "count" : 36,
            "type" : "SCALAR"
        },
        {
            "bufferView" : 26,
            "componentType" : 5126,
            "count" : 24,
            "max" : [
                1,
                7.717007637023926,
                84.9339599609375
            ],
            "min" : [
                -1,
                5.717007637023926,
                82.9339599609375
            ],
            "type" : "VEC3"
        },
        {
            "bufferView" : 27,
            "componentType" : 5126,
            "count" : 24,
            "type" : "VEC2"
        },
        {
            "bufferView" : 28,
            "componentType" : 5126,
            "count" : 24,
            "type" : "VEC3"
        },
        {
            "bufferView" : 29,
            "componentType" : 5126,
            "count" : 16224,
            "max" : [
                13,
                3.7952864170074463,
                13
            ],
            "min" : [
                -13,
                0,
                -13
            ],
            "type" : "VEC3"
        },
        {
            "bufferView" : 30,
            "componentType" : 5126,
            "count" : 16224,
            "type" : "VEC2"
        },
        {
            "bufferView" : 31,
            "componentType" : 5126,
            "count" : 16224,
            "type" : "VEC3"
        },
        {
            "bufferView" : 32,
            "componentType" : 5123,
            "count" : 24336,
            "type" : "SCALAR"
        }
    ],
    "bufferViews" : [
        {
            "buffer" : 0,
            "byteLength" : 146208,
            "byteOffset" : 0,
            "target" : 34962
        },
        {
            "buffer" : 0,
            "byteLength" : 97472,
            "byteOffset" : 146208,
            "target" : 34962
        },
        {
            "buffer" : 0,
            "byteLength" : 146208,
            "byteOffset" : 243680,
            "target" : 34962
        },
        {
            "buffer" : 0,
            "byteLength" : 43920,
            "byteOffset" : 389888,
            "target" : 34963
        },
        {
            "buffer" : 0,
            "byteLength" : 50400,
            "byteOffset" : 433808,
            "target" : 34962
        },
        {
            "buffer" : 0,
            "byteLength" : 33600,
            "byteOffset" : 484208,
            "target" : 34962
        },
        {
            "buffer" : 0,
            "byteLength" : 50400,
            "byteOffset" : 517808,
            "target" : 34962
        },
        {
            "buffer" : 0,
            "byteLength" : 15528,
            "byteOffset" : 568208,
            "target" : 34963
        },
        {
            "buffer" : 0,
            "byteLength" : 45276,
            "byteOffset" : 583736,
            "target" : 34962
        },
        {
            "buffer" : 0,
            "byteLength" : 30184,
            "byteOffset" : 629012,
            "target" : 34962
        },
        {
            "buffer" : 0,
            "byteLength" : 45276,
            "byteOffset" : 659196,
            "target" : 34962
        },
        {
            "buffer" : 0,
            "byteLength" : 13944,
            "byteOffset" : 704472,
            "target" : 34963
        },
        {
            "buffer" : 0,
            "byteLength" : 146208,
            "byteOffset" : 718416,
            "target" : 34962
        },
        {
            "buffer" : 0,
            "byteLength" : 97472,
            "byteOffset" : 864624,
            "target" : 34962
        },
        {
            "buffer" : 0,
            "byteLength" : 146208,
            "byteOffset" : 962096,
            "target" : 34962
        },
        {
            "buffer" : 0,
            "byteLength" : 50400,
            "byteOffset" : 1108304,
            "target" : 34962
        },
        {
            "buffer" : 0,
            "byteLength" : 33600,
            "byteOffset" : 1158704,
            "target" : 34962
        },
        {
            "buffer" : 0,
            "byteLength" : 50400,
            "byteOffset" : 1192304,
            "target" : 34962
        },
        {
            "buffer" : 0,
            "byteLength" : 45276,
            "byteOffset" : 1242704,
            "target" : 34962
        },
        {
            "buffer" : 0,
            "byteLength" : 30184,
            "byteOffset" : 1287980,
            "target" : 34962
        },
        {
            "buffer" : 0,
            "byteLength" : 45276,
            "byteOffset" : 1318164,
            "target" : 34962
        },
        {
            "buffer" : 0,
            "byteLength" : 288,
            "byteOffset" : 1363440,
            "target" : 34962
        },
        {
            "buffer" : 0,
            "byteLength" : 192,
            "byteOffset" : 1363728,
            "target" : 34962
        },
        {
            "buffer" : 0,
            "byteLength" : 288,
            "byteOffset" : 1363920,
            "target" : 34962
        },
        {
            "buffer" : 0,
            "byteLength" : 72,
            "byteOffset" : 1364208,
            "target" : 34963
        },
        {
            "buffer" : 0,
            "byteLength" : 37354,
            "byteOffset" : 1364280
        },
        {
            "buffer" : 0,
            "byteLength" : 288,
            "byteOffset" : 1401636,
            "target" : 34962
        },
        {
            "buffer" : 0,
            "byteLength" : 192,
            "byteOffset" : 1401924,
            "target" : 34962
        },
        {
            "buffer" : 0,
            "byteLength" : 288,
            "byteOffset" : 1402116,
            "target" : 34962
        },
        {
            "buffer" : 0,
            "byteLength" : 194688,
            "byteOffset" : 1402404,
            "target" : 34962
        },
        {
            "buffer" : 0,
            "byteLength" : 129792,
            "byteOffset" : 1597092,
            "target" : 34962
        },
        {
            "buffer" : 0,
            "byteLength" : 194688,
            "byteOffset" : 1726884,
            "target" : 34962
        },
        {
            "buffer" : 0,
            "byteLength" : 48672,
            "byteOffset" : 1921572,
            "target" : 34963
        },
        {
            "buffer" : 0,
            "byteLength" : 191281,
            "byteOffset" : 1970244
        }
    ],
    "samplers" : [
        {
            "magFilter" : 9729,
            "minFilter" : 9987
        }
    ],
    "buffers" : [
        {
            "byteLength" : 2161528,
            "uri" : "data:application/octet-stream;base64,"
        }
    ]
}
